<?xml version="1.0" encoding="UTF-8"?>
<svg version="1.1"
	 width="1000" height="520"
	 xmlns="http://www.w3.org/2000/svg"
	 xmlns:xlink="http://www.w3.org/1999/xlink">
	<style type="text/css">
		#arrow2 { fill: #00f; stroke: #000; }
		circle { fill: #f00; stroke: #000; }
		#res3a path, #res3a { fill: none; stroke: #f00; stroke-width:10; }
		#res3b path, #res3b { fill: none; stroke: #000; stroke-width:12; }
		#arrow3 path, #arrow3 { stroke:#000; fill:#f00; stroke-width:0.1; }
		#w1, #w2, #a2{ stroke: #000; fill: none; stroke-width: 1pt; }
		.passive{ opacity:0.2; }
		.rAxis{ stroke: #000; stroke-dasharray: 10,4,2,4; stroke-width: 1pt; }
		.axis { stroke:#555; fill:#555; stroke-width: 1pt; }
		text{ font-family:DejaVu Sans }
	</style>
	<defs>
		<marker id="arrow1" markerWidth="20" markerHeight="16" refX="10" refY="8" orient="auto">
			<path d="m10,8 l-8,5 16,-5 -16,-5  z" />
		</marker>
		<marker id="arrow2" markerWidth="38" markerHeight="20" refX="28" refY="10" orient="auto">
			<path d="m5,15 v-10 h20 v-5 l10,10 -10,10 v-5 z" />
		</marker>
		<marker id="robbin" markerWidth="80" markerHeight="60" refX="15" refY="12" orient="auto">
			<path d="m18,9 c6,3 6,3 0,6 -6,3 -6,3 -12,0 -6,-3 -6,-3 0,-6 6,-3 6,-3 12,0" />
		</marker>
		<marker id="arrow3" markerWidth="18" markerHeight="20" refX="0" refY="10" orient="auto">
			<path d="m0,10 v-2 l2,2 -2,2 z" />
		</marker>
	</defs>
	<g id="i">
		<g id="e">
			<g id="w1" marker-end="url(#robbin)">
				<path d="m103,70 v-18 c0,-10 0,-10 -10,-10 h-1 c-10,0 -10,0 -10,10 v30 l13,13" />
				<path d="m82,66 l13,13" />
				<path d="m82,82 v18 c0,10 0,10 10,10 h1 c10,0 10,0 10,-10 v-30 l-13,-13" />
			</g>
			<path d="m105,77 h100 v120 h-100 z" fill="#fff" stroke="#000" />
			<g class="axis" marker-end="url(#arrow1)">
				<path d="M25,137 h261"/>
				<path d="M155,230 v-190"/>
			</g>
			<g font-size="16px">
				<text x="162" y="55">y</text>
				<text x="273" y="130">x</text>
			</g>
		</g>
		<use transform="translate(344)" xlink:href="#e"/>
		<use transform="translate(689)" xlink:href="#e"/>
	</g>
	
	<g id="w2"><use transform="matrix(-1,0,0,1,310,0)" xlink:href="#w1"/></g>
	<use transform="translate(-125 120)" xlink:href="#w2"/>
	<use transform="translate(125 120)" xlink:href="#w1"/>

	<use transform="translate(344)" xlink:href="#w2"/>
	<use transform="translate(219 120)" xlink:href="#w2"/>
	<use transform="translate(469 120)" xlink:href="#w1"/>

	<g id="passive2">
		<use class="passive" transform="translate(689)" xlink:href="#w2"/>
		<path class="rAxis" d="m850 25 l145,145 -91,-91" marker-end="url(#robbin)" />
	</g>
	<use transform="translate(814 120)" xlink:href="#w1"/>
	<use transform="translate(-125 120)" xlink:href="#passive2"/>

	<use transform="translate(0 254)" xlink:href="#i"/>
	
	<use transform="translate(-125 374)" xlink:href="#w2"/>
	<use transform="translate(-689 254)" xlink:href="#passive2"/>
	<g id="passive1">
		<use class="passive"  transform="translate(125 374)" xlink:href="#w1"/>
		<path class="rAxis" d="m151 515 l145,-145 -81,81" marker-end="url(#robbin)" />
	</g>

	<use transform="translate(344 254)" xlink:href="#w2"/>
	<use transform="translate(219 374)" xlink:href="#w2"/>
	<use transform="translate(469 374)" xlink:href="#w1"/>

	<use transform="translate(689 254)" xlink:href="#w2"/>
	<use transform="translate(-125 370)" xlink:href="#passive2"/>
	<use transform="translate(689)" xlink:href="#passive1"/>

	<g id="a2" marker-end="url(#arrow2)">
		<path d="m45,90 v-25" />
		<path d="m265,90 v-25" />
		<path d="m45,210 v-25" />
		<path d="m265,210 v-25" />
		
		<path d="m390,90 v-25" />
		<path d="m390,185 v25" />
		<path d="m610,65 v25" />
		<path d="m610,210 v-25" />
		
		<path d="m735,90 v-25" />
		<path d="m955,210 v-25" />
		
		<path d="m45,343 v-25" />
		<path d="m45,465 v-25" />
		
		<path d="m390,343 v-25" />
		<path d="m390,465 v-25" />
		<path d="m610,318 v25" />
		<path d="m610,440 v25" />

		<path d="m735,343 v-25" />
		<path d="m955,318 v25" />

	</g>
	<circle cx="274" cy="391" r="5" />
	<circle cx="499" cy="391" r="5" />
	<circle cx="844" cy="512" r="5" />
	<g id="res3b" marker-end="url(#arrow3)">
		<path d="m155,155 v-30" />
		<path d="m480,137 h30" />
		<path d="m830,151 l24,-24" />
		<path d="m164,454.5 a127,127 0 0 1 0,-127" />
		<path d="m446,360.4 a61.2,61.2 0 1 1 0,61.2" />
		<path d="m780.5,402 a127,127 0 0 1 127,0" />
	</g>
	<g id="res3a">
		<path d="m155,155 v-30" />
		<path d="m480,137 h30" />
		<path d="m830,151 l24,-24" />
		<path d="m164,454.5 a127,127 0 0 1 0,-127" />
		<path d="m446,360.4 a61.2,61.2 0 1 1 0,61.2" />
		<path d="m780.5,402 a127,127 0 0 1 127,0" />
	</g>
	<g font-size="25px">
		<text x="23" y="37">a)</text>
		<text x="367" y="37">b)</text>
		<text x="712" y="37">c)</text>
		<text x="23" y="291">d)</text>
		<text x="368" y="291">e)</text>
		<text x="713" y="291">f)</text>
	</g>
</svg>